<svg width="30" height="30" viewBox="0 0 30 30" fill="none" xmlns="http://www.w3.org/2000/svg">
<path d="M29.8107 12.4263L29.1003 14.1703C28.8759 14.764 28.8759 15.3948 29.1003 15.9885L29.8107 17.7325C30.2221 18.7715 29.8855 19.9589 28.9507 20.6268L27.3803 21.7029C26.8568 22.074 26.5203 22.6306 26.3707 23.2243L26.0342 25.0796C25.8098 26.1928 24.875 27.0091 23.7533 27.0462L21.8463 27.1204C21.2106 27.1575 20.6123 27.4173 20.1636 27.8626L18.8549 29.2355C18.0697 30.0518 16.8357 30.2374 15.8635 29.6808L14.2183 28.716C13.6574 28.3821 13.0218 28.3078 12.3861 28.4563L10.5165 28.9015C9.43213 29.1613 8.27297 28.6418 7.74949 27.6399L6.88947 25.933C6.59033 25.3764 6.10424 24.9312 5.50597 24.7456L3.71115 24.1519C2.62679 23.7809 1.95373 22.7419 2.06591 21.6287L2.25287 19.7362C2.32765 19.1054 2.14069 18.4746 1.72938 17.9922L0.532836 16.508C-0.177612 15.6174 -0.177612 14.3929 0.532836 13.5024L1.72938 12.0181C2.14069 11.5357 2.32765 10.9049 2.25287 10.2741L2.06591 8.38167C1.95373 7.26847 2.62679 6.22949 3.71115 5.85843L5.50597 5.26472C6.10424 5.07919 6.59033 4.63391 6.88947 4.07732L7.74949 2.37042C8.27297 1.36855 9.39473 0.849054 10.5165 1.1088L12.3861 1.55408C12.9844 1.7025 13.6574 1.62829 14.2183 1.29433L15.8635 0.329564C16.8357 -0.227033 18.0697 -0.0786074 18.8549 0.774841L20.1636 2.14778C20.6123 2.59306 21.2106 2.88991 21.8463 2.88991L23.7533 2.96412C24.875 3.00123 25.8472 3.81757 26.0342 4.93077L26.3707 6.78609C26.4829 7.4169 26.8568 7.9735 27.3803 8.30746L28.9507 9.38354C29.8855 10.1999 30.2595 11.3873 29.8107 12.4263Z" fill="#68FC77"/>
<g opacity="0.15">
<path d="M8.83385 27.5289L7.97384 25.822C7.6747 25.2654 7.18861 24.8201 6.59033 24.6346L4.79552 24.0409C3.71115 23.6698 3.0381 22.6308 3.15027 21.5176L3.33723 19.6252C3.41202 18.9944 3.22506 18.3636 2.81375 17.8812L1.6172 16.397C0.906755 15.5064 0.906755 14.2819 1.6172 13.3913L2.81375 11.9071C3.22506 11.4247 3.41202 10.7939 3.33723 10.1631L3.15027 8.27064C3.0381 7.15744 3.71115 6.11846 4.79552 5.7474L6.59033 5.15369C7.18861 4.96816 7.6747 4.52288 7.97384 3.96629L8.83385 2.25939C9.13299 1.66568 9.65648 1.25751 10.2174 1.07198C9.20777 0.923555 8.19819 1.44305 7.74949 2.37071L6.88947 4.0776C6.59033 4.6342 6.10424 5.07948 5.50597 5.26501L3.71115 5.85871C2.62679 6.22978 1.95373 7.26876 2.06591 8.38196L2.25287 10.2744C2.32765 10.9052 2.14069 11.536 1.72938 12.0184L0.532836 13.5026C-0.177612 14.3932 -0.177612 15.6177 0.532836 16.5083L1.72938 17.9925C2.14069 18.4749 2.32765 19.1057 2.25287 19.7365L2.06591 21.629C1.95373 22.7422 2.62679 23.7811 3.71115 24.1522L5.50597 24.7459C6.10424 24.9314 6.59033 25.3767 6.88947 25.9333L7.74949 27.6402C8.27297 28.6421 9.39473 29.1616 10.5165 28.9018L10.7408 28.8647C9.91822 28.7163 9.20777 28.271 8.83385 27.5289Z" fill="black"/>
<path d="M15.2626 1.18361L16.9078 0.218845C17.0574 0.144632 17.2069 0.0704186 17.3565 0.0333122C16.833 -0.0409008 16.2721 0.070419 15.8234 0.330164L14.1782 1.29493C14.0286 1.36914 13.8791 1.44336 13.7295 1.48046C14.253 1.55468 14.7765 1.48046 15.2626 1.18361Z" fill="black"/>
<path d="M22.8897 26.9726C22.7027 26.9726 22.5158 27.0098 22.3662 27.0469L23.7123 26.9726C23.8993 26.9726 24.0488 26.9355 24.2358 26.8984L22.8897 26.9726Z" fill="black"/>
<path d="M16.9118 29.5328L15.2665 28.568C14.7056 28.234 14.07 28.1598 13.4343 28.3082L13.21 28.3453C13.5465 28.3825 13.8456 28.4938 14.1448 28.6422L15.79 29.607C16.4257 29.978 17.1361 30.0151 17.8092 29.7925C17.51 29.7925 17.2109 29.7183 16.9118 29.5328Z" fill="black"/>
</g>
<path d="M13.6193 12.1144C13.5695 12.0279 13.5695 11.9226 13.6193 11.8363L15.182 9.12911C15.2813 8.95696 15.5644 8.95696 15.6636 9.12911L17.2266 11.8363C17.2764 11.9225 17.2764 12.0279 17.2266 12.1144C17.1769 12.2006 17.0851 12.2535 16.9858 12.2535H13.8601C13.7608 12.2535 13.6691 12.2006 13.6193 12.1144ZM11.6686 16.0491H19.1775C19.2771 16.0491 19.3688 15.9962 19.4184 15.91C19.4681 15.8238 19.4681 15.7181 19.4184 15.6319L18.0547 13.2701C18.005 13.1839 17.9132 13.131 17.8139 13.131H13.0328C12.9336 13.131 12.8415 13.1839 12.792 13.2701L11.4281 15.6319C11.3783 15.7181 11.3783 15.8238 11.4281 15.91C11.4774 15.9959 11.5691 16.0491 11.6686 16.0491ZM21.8089 19.7729L20.2459 17.0659C20.1962 16.9797 20.1044 16.9269 20.0051 16.9269H10.8411C10.7419 16.9269 10.6498 16.9797 10.6003 17.0659L9.03733 19.7729C8.98756 19.8591 8.98756 19.9648 9.03733 20.051C9.08709 20.1371 9.17884 20.19 9.27815 20.19H21.5681C21.6673 20.19 21.7594 20.1371 21.8089 20.051C21.8583 19.9648 21.8587 19.8588 21.8089 19.7729Z" fill="black"/>
<mask id="path-7-outside-1_727_12312" maskUnits="userSpaceOnUse" x="20" y="17" width="11" height="11" fill="black">
<rect fill="white" x="20" y="17" width="11" height="11"/>
<path d="M22.216 25.392H29.128V24.168H27.412L27.208 24.264H24.292L26.452 21.132V24.756L26.356 24.888V27H27.808V18.6H26.956L22.216 25.392Z"/>
</mask>
<path d="M22.216 25.392H29.128V24.168H27.412L27.208 24.264H24.292L26.452 21.132V24.756L26.356 24.888V27H27.808V18.6H26.956L22.216 25.392Z" fill="#101828"/>
<path d="M22.216 25.392L21.396 24.8197L20.2987 26.392H22.216V25.392ZM29.128 25.392V26.392H30.128V25.392H29.128ZM29.128 24.168H30.128V23.168H29.128V24.168ZM27.412 24.168V23.168H27.1885L26.9862 23.2632L27.412 24.168ZM27.208 24.264V25.264H27.4315L27.6338 25.1688L27.208 24.264ZM24.292 24.264L23.4688 23.6963L22.3876 25.264H24.292V24.264ZM26.452 21.132H27.452V17.9206L25.6288 20.5643L26.452 21.132ZM26.452 24.756L27.2607 25.3442L27.452 25.0812V24.756H26.452ZM26.356 24.888L25.5473 24.2998L25.356 24.5628V24.888H26.356ZM26.356 27H25.356V28H26.356V27ZM27.808 27V28H28.808V27H27.808ZM27.808 18.6H28.808V17.6H27.808V18.6ZM26.956 18.6V17.6H26.4344L26.136 18.0277L26.956 18.6ZM22.216 26.392H29.128V24.392H22.216V26.392ZM30.128 25.392V24.168H28.128V25.392H30.128ZM29.128 23.168H27.412V25.168H29.128V23.168ZM26.9862 23.2632L26.7822 23.3592L27.6338 25.1688L27.8378 25.0728L26.9862 23.2632ZM27.208 23.264H24.292V25.264H27.208V23.264ZM25.1152 24.8317L27.2752 21.6997L25.6288 20.5643L23.4688 23.6963L25.1152 24.8317ZM25.452 21.132V24.756H27.452V21.132H25.452ZM25.6433 24.1678L25.5473 24.2998L27.1647 25.4762L27.2607 25.3442L25.6433 24.1678ZM25.356 24.888V27H27.356V24.888H25.356ZM26.356 28H27.808V26H26.356V28ZM28.808 27V18.6H26.808V27H28.808ZM27.808 17.6H26.956V19.6H27.808V17.6ZM26.136 18.0277L21.396 24.8197L23.036 25.9643L27.776 19.1723L26.136 18.0277Z" fill="#68FC77" mask="url(#path-7-outside-1_727_12312)"/>
</svg>
