<svg width="1919" height="210" viewBox="0 0 1919 210" fill="none" xmlns="http://www.w3.org/2000/svg">
<path d="M1919.89 0C1895.65 37.0907 1853.81 61.6372 1806.2 61.6372C1773.57 61.6372 1743.62 50.1051 1720.21 30.909C1709.3 78.5557 1666.67 114.128 1615.73 114.128C1606.16 114.128 1596.87 112.863 1588.02 110.477C1562.26 157.545 1512.3 189.43 1454.93 189.43C1381.63 189.43 1320.5 137.409 1306.34 68.2889C1286.18 88.1357 1258.5 100.427 1227.98 100.427C1194.88 100.427 1165.11 86.0028 1144.67 63.1194C1122.41 101.765 1080.72 127.829 1032.96 127.829C989.896 127.829 951.781 106.681 928.406 74.2176C907.633 90.63 881.404 100.463 852.864 100.463C845.747 100.463 838.81 99.8124 832.018 98.6555C813.015 141.386 770.24 171.21 720.492 171.21C670.745 171.21 629.378 142.398 609.906 100.788C591.986 117.562 567.889 127.829 541.408 127.829C532.159 127.829 523.236 126.564 514.746 124.214C498.488 173.994 451.739 210 396.572 210C341.405 210 294.584 173.994 278.363 124.178C264.526 132.312 248.413 136.975 231.18 136.975C183.058 136.975 143.426 100.572 138.26 53.7924C125.76 58.8535 112.068 61.6732 97.7612 61.6732C54.661 61.6732 17.4496 36.4762 0 0.0361786H1920L1919.89 0Z" fill="white"/>
</svg>
