<svg width="176" height="176" viewBox="0 0 176 176" fill="none" xmlns="http://www.w3.org/2000/svg">
<g filter="url(#filter0_b_784_53)">
<rect x="2" y="2" width="172" height="172" rx="86" fill="white" fill-opacity="0.1"/>
<rect x="1.41892" y="1.41892" width="173.162" height="173.162" rx="86.5811" stroke="white" stroke-width="1.16216"/>
<g filter="url(#filter1_d_784_53)">
<circle cx="87.9988" cy="88" r="38.7" fill="white"/>
</g>
<path d="M96.8215 86.3582L82.5438 76.4258C81.2177 75.5033 79.4016 76.4522 79.4016 78.0676V97.9324C79.4016 99.5477 81.2177 100.497 82.5438 99.5742L96.8215 89.6418C97.9654 88.8461 97.9654 87.1539 96.8215 86.3582Z" fill="#EE5E37"/>
<path d="M29.0784 80.7843L20.3802 76.6512L20.6304 75.4293L22.5765 75.7468L31.4842 80.0849L31.2196 81.3769L29.0784 80.7843ZM19.6262 80.3325L29.135 80.3499L31.3375 80.8009L31.049 82.2096L19.1911 82.4573L19.6262 80.3325ZM30.2166 74.8705L21.4991 71.1876L21.9358 69.0551L32.7418 73.9442L32.4533 75.3529L30.2166 74.8705ZM20.7499 74.8456L30.4038 74.4709L32.5712 74.7769L32.3066 76.0689L22.4045 76.5468L20.5013 76.0597L20.7499 74.8456Z" fill="white"/>
<path d="M28.7953 57.9013L35.933 65.3972L34.8537 67.4417L26.6418 58.2199L27.3316 56.9131L28.7953 57.9013ZM38.7589 60.0436L28.5357 58.3931L26.8903 57.7492L27.5838 56.4354L39.8418 57.9921L38.7589 60.0436ZM34.8876 58.1707L36.4121 58.9755L33.5157 64.4626L31.9911 63.6578L34.8876 58.1707Z" fill="white"/>
<path d="M37.6173 42.4563L46.2066 50.2038L44.7486 51.8202L36.1593 44.0727L37.6173 42.4563ZM40.0224 39.7899L41.3026 40.9446L35.061 47.8643L33.7808 46.7097L40.0224 39.7899Z" fill="white"/>
<path d="M56.1989 37.1195L58.0245 35.9194C58.4006 36.5975 58.5981 37.2885 58.6171 37.9922C58.6331 38.6916 58.4577 39.3647 58.0907 40.0116C57.7237 40.6585 57.1463 41.2409 56.3585 41.7588C55.7522 42.1574 55.1358 42.4105 54.5094 42.5181C53.8844 42.6184 53.2684 42.5828 52.6613 42.4114C52.0558 42.2327 51.4776 41.922 50.9266 41.4792C50.3728 41.032 49.8646 40.4566 49.402 39.7529L48.9175 39.0161C48.4549 38.3124 48.1304 37.6162 47.9438 36.9275C47.7573 36.2388 47.7057 35.5819 47.7891 34.9566C47.874 34.3241 48.0885 33.7393 48.4328 33.2024C48.7815 32.6626 49.259 32.1934 49.8653 31.7949C50.653 31.277 51.4151 30.9852 52.1515 30.9194C52.8849 30.8492 53.568 30.9674 54.2006 31.2741C54.8332 31.5808 55.3958 32.0413 55.8883 32.6555L54.0628 33.8557C53.7597 33.4718 53.4443 33.1848 53.1164 32.9946C52.793 32.8016 52.4439 32.7237 52.0691 32.7609C51.6958 32.7909 51.2812 32.9556 50.8254 33.2553C50.4713 33.4881 50.203 33.7596 50.0203 34.0698C49.842 34.3771 49.7517 34.7218 49.7492 35.1037C49.7438 35.4812 49.8264 35.896 49.9968 36.348C50.1643 36.7957 50.4168 37.2762 50.7543 37.7895L51.2474 38.5397C51.5704 39.0309 51.8997 39.4451 52.2354 39.7822C52.5711 40.1193 52.9118 40.3675 53.2574 40.5269C53.6031 40.6863 53.9552 40.7496 54.3138 40.7166C54.6725 40.6837 55.0355 40.5465 55.4028 40.305C55.8498 40.0111 56.1661 39.7018 56.3518 39.3768C56.542 39.049 56.6199 38.6999 56.5855 38.3295C56.5556 37.9562 56.4268 37.5529 56.1989 37.1195Z" fill="white"/>
<path d="M71.2534 27.3093L71.7802 28.9424L65.9887 30.8107L65.4618 29.1776L71.2534 27.3093ZM64.563 24.4506L68.1143 35.4591L66.0351 36.1299L62.4838 25.1214L64.563 24.4506ZM71.3299 22.2677L74.8812 33.2762L72.802 33.9469L69.2507 22.9384L71.3299 22.2677Z" fill="white"/>
<path d="M93.7941 22.2375L89.7425 31.7621L87.4377 31.5819L92.6479 20.3868L94.121 20.5019L93.7941 22.2375ZM95.7778 32.2339L93.2397 22.1941L93.1785 20.4283L94.6596 20.544L98.0905 32.4147L95.7778 32.2339ZM95.9623 27.9372L95.8279 29.6559L89.6422 29.1724L89.7765 27.4537L95.9623 27.9372Z" fill="white"/>
<path d="M114.711 35.6454L121.382 28.5489L123.56 29.6113L114.818 38.2167L113.369 37.5096L114.711 35.6454ZM116.398 26.1174L114.897 35.7359L114.275 37.952L112.812 37.2379L114.228 25.0585L116.398 26.1174Z" fill="white"/>
<path d="M131.092 34.9652L124.134 44.2058L122.389 42.8917L129.347 33.6511L131.092 34.9652Z" fill="white"/>
<path d="M130.823 50.3923L129.179 48.5165L130.479 47.3972L132.113 49.2612C132.557 49.767 133.04 50.0934 133.563 50.2404C134.091 50.3839 134.642 50.3582 135.218 50.1634C135.798 49.9651 136.384 49.6058 136.978 49.0856L137.426 48.6929C137.884 48.2914 138.244 47.8872 138.508 47.4804C138.771 47.0736 138.936 46.6679 139.004 46.2633C139.076 45.8626 139.049 45.4668 138.925 45.0758C138.8 44.6848 138.577 44.3061 138.256 43.9397L136.549 41.9921L137.845 40.8557L139.553 42.8033C140.062 43.3848 140.429 44 140.653 44.649C140.88 45.302 140.964 45.9643 140.905 46.636C140.853 47.3082 140.657 47.9595 140.315 48.5901C139.977 49.2247 139.495 49.816 138.87 50.3641L138.434 50.7464C137.812 51.2911 137.163 51.6912 136.486 51.9469C135.816 52.2031 135.144 52.3129 134.471 52.2761C133.801 52.2433 133.156 52.0695 132.535 51.7547C131.914 51.4399 131.343 50.9858 130.823 50.3923ZM138.683 41.8116L129.985 49.4365L128.545 47.7936L137.243 40.1687L138.683 41.8116Z" fill="white"/>
<path d="M143.111 66.1358L141.571 66.8935L138.856 61.3763L140.396 60.6186L143.111 66.1358ZM149.529 56.8677L139.151 61.9751L138.186 60.0149L148.565 54.9074L149.529 56.8677ZM147.312 63.1743L145.808 63.9145L143.447 59.1173L144.951 58.3771L147.312 63.1743ZM151.939 61.7647L150.392 62.5259L147.688 57.0301L149.235 56.2689L151.939 61.7647Z" fill="white"/>
<path d="M151.796 81.5535L151.211 81.6647C150.352 81.8279 149.558 81.8603 148.827 81.7619C148.102 81.6625 147.46 81.4475 146.901 81.1171C146.343 80.7866 145.88 80.3542 145.515 79.8199C145.149 79.2856 144.898 78.662 144.763 77.9492C144.629 77.2468 144.634 76.5773 144.777 75.9409C144.922 75.3097 145.193 74.7353 145.59 74.2177C145.988 73.7 146.505 73.2593 147.142 72.8957C147.785 72.531 148.535 72.2671 149.393 72.1039L149.979 71.9926C150.843 71.8285 151.637 71.7987 152.364 71.9033C153.09 72.0079 153.732 72.2254 154.291 72.5559C154.855 72.8854 155.32 73.3173 155.686 73.8516C156.052 74.3911 156.302 75.0121 156.436 75.7145C156.571 76.4273 156.567 77.0993 156.423 77.7306C156.279 78.3618 156.005 78.9341 155.601 79.4475C155.203 79.9651 154.685 80.4032 154.047 80.7617C153.41 81.1254 152.66 81.3893 151.796 81.5535ZM150.798 79.495L151.399 79.3808C152.018 79.2631 152.551 79.1025 152.998 78.899C153.449 78.6946 153.815 78.4498 154.095 78.1648C154.376 77.8797 154.565 77.558 154.664 77.1995C154.768 76.8401 154.781 76.4548 154.703 76.0438C154.624 75.6275 154.471 75.2739 154.243 74.983C154.021 74.6962 153.728 74.4717 153.363 74.3092C152.998 74.1468 152.567 74.0508 152.071 74.0211C151.581 73.9956 151.026 74.0417 150.407 74.1594L149.806 74.2736C149.192 74.3903 148.659 74.5509 148.207 74.7553C147.757 74.965 147.389 75.2128 147.103 75.4989C146.824 75.7891 146.632 76.1114 146.527 76.4656C146.422 76.8199 146.409 77.2051 146.488 77.6214C146.567 78.0376 146.72 78.3912 146.948 78.6822C147.176 78.9731 147.472 79.1972 147.836 79.3544C148.206 79.5159 148.639 79.6088 149.134 79.6333C149.63 79.6578 150.184 79.6117 150.798 79.495Z" fill="white"/>
<circle cx="88.0015" cy="149.06" r="3.44" fill="white"/>
</g>
<defs>
<filter id="filter0_b_784_53" x="-40.3821" y="-40.3821" width="256.764" height="256.764" filterUnits="userSpaceOnUse" color-interpolation-filters="sRGB">
<feFlood flood-opacity="0" result="BackgroundImageFix"/>
<feGaussianBlur in="BackgroundImageFix" stdDeviation="20.61"/>
<feComposite in2="SourceAlpha" operator="in" result="effect1_backgroundBlur_784_53"/>
<feBlend mode="normal" in="SourceGraphic" in2="effect1_backgroundBlur_784_53" result="shape"/>
</filter>
<filter id="filter1_d_784_53" x="33.8188" y="35.54" width="111.8" height="111.8" filterUnits="userSpaceOnUse" color-interpolation-filters="sRGB">
<feFlood flood-opacity="0" result="BackgroundImageFix"/>
<feColorMatrix in="SourceAlpha" type="matrix" values="0 0 0 0 0 0 0 0 0 0 0 0 0 0 0 0 0 0 127 0" result="hardAlpha"/>
<feOffset dx="1.72" dy="3.44"/>
<feGaussianBlur stdDeviation="8.6"/>
<feComposite in2="hardAlpha" operator="out"/>
<feColorMatrix type="matrix" values="0 0 0 0 0.345098 0 0 0 0 0.25098 0 0 0 0 0.729412 0 0 0 0.12 0"/>
<feBlend mode="normal" in2="BackgroundImageFix" result="effect1_dropShadow_784_53"/>
<feBlend mode="normal" in="SourceGraphic" in2="effect1_dropShadow_784_53" result="shape"/>
</filter>
</defs>
</svg>
