<svg width="61" height="60" viewBox="0 0 61 60" fill="none" xmlns="http://www.w3.org/2000/svg">
<g clip-path="url(#clip0_689_20)">
<rect x="7.5" y="10" width="46" height="26" fill="#EE5E37"/>
<path d="M4.01626 4.28905C2.62173 4.66405 1.57876 5.54295 0.922507 6.91405L0.559226 7.67577L0.524069 24.9492C0.488913 43.7578 0.465476 42.9844 1.13344 44.1211C1.84829 45.3398 3.2311 46.2305 4.69594 46.418C5.12954 46.4648 9.66469 46.5117 14.7741 46.5234H24.0553V50.039V53.5547H22.6373C21.2311 53.5547 21.2194 53.5547 20.8795 53.8945C20.5163 54.2578 20.4225 54.8672 20.6569 55.3242C20.9733 55.9101 20.8092 55.8984 30.5006 55.8984C36.9225 55.8984 39.6178 55.8633 39.7936 55.7695C40.5319 55.3945 40.6959 54.4687 40.1217 53.8945C39.7819 53.5547 39.7702 53.5547 38.3639 53.5547H36.9459V50.039V46.5234H46.2389C51.3366 46.5117 55.8717 46.4648 56.3053 46.418C57.7819 46.2187 59.1413 45.3515 59.8561 44.1328C60.5241 42.9844 60.5006 43.7461 60.5006 25.2539C60.5006 7.07811 60.5123 7.74608 59.9264 6.5742C59.5866 5.92967 58.6842 5.01561 58.0631 4.6992C56.8327 4.06639 58.3092 4.10155 30.442 4.11327C8.12954 4.11327 4.57876 4.1367 4.01626 4.28905ZM56.8209 6.73827C57.4538 7.05467 57.8053 7.44139 58.0163 8.0742C58.1217 8.36717 58.1569 12.75 58.1569 25.3594C58.1569 41.4375 58.1452 42.2695 57.9342 42.7148C57.6295 43.3828 57.0084 43.8984 56.2819 44.0508C55.4381 44.2383 5.56313 44.2383 4.71938 44.0508C3.99282 43.8984 3.37173 43.3828 3.06704 42.7148C2.8561 42.2695 2.84438 41.4375 2.84438 25.3594C2.84438 12.914 2.87954 8.36717 2.98501 8.0742C3.19594 7.41795 3.51235 7.06639 4.15688 6.74998L4.76626 6.4453H30.5006H56.235L56.8209 6.73827ZM34.6022 50.039V53.5547H30.5006H26.3991V50.039V46.5234H30.5006H34.6022V50.039Z" fill="#0C0C0D"/>
<path d="M19.6367 13.5586C19.4961 13.582 19.25 13.7461 19.0859 13.9102L18.7812 14.2148V22.9219V31.6289L19.0625 31.957L19.3437 32.2852H30.5H41.6562L41.9375 31.957L42.2187 31.6289V22.9219V14.2148L41.9258 13.9219C41.7617 13.7578 41.4687 13.5938 41.2695 13.5469C40.6719 13.4297 34.2617 13.4766 33.3828 13.5938C32.4922 13.7227 31.4492 14.2148 30.8633 14.7891L30.5 15.1406L30.125 14.7656C29.5625 14.2148 28.5078 13.7227 27.6055 13.5938C26.8437 13.4883 20.1758 13.4531 19.6367 13.5586ZM27.8633 16.043C28.3672 16.2539 28.8594 16.7461 29.1055 17.2852C29.3047 17.7188 29.3281 18.1641 29.3281 23.8711V30H25.2266H21.125V22.8984V15.7969L24.3242 15.8438C26.5391 15.8789 27.6172 15.9375 27.8633 16.043ZM39.875 22.9102V30H35.7734H31.6719V23.8711C31.6719 18.2109 31.6953 17.7188 31.8945 17.2852C32.1758 16.6641 32.8437 16.0898 33.3945 15.9961C33.6406 15.9492 33.8984 15.9023 33.957 15.8789C34.0273 15.8555 35.375 15.832 36.9805 15.832L39.875 15.8203V22.9102Z" fill="#0C0C0D"/>
<path d="M23.8086 19.7927C23.3398 20.2614 23.3398 20.8357 23.8086 21.3513C24.125 21.7146 24.207 21.738 25.0742 21.7732C25.8828 21.8083 26.0352 21.7849 26.3867 21.5388C27.0664 21.0818 27.1484 20.3083 26.5742 19.7341C26.3164 19.4763 26.1992 19.4529 25.2266 19.4529C24.1953 19.4529 24.1367 19.4646 23.8086 19.7927Z" fill="#0C0C0D"/>
<path d="M23.8102 24.4803C23.4235 24.867 23.3649 25.3592 23.6461 25.8866C23.8805 26.3553 24.3727 26.5194 25.3922 26.4608C26.1188 26.4256 26.318 26.3788 26.5641 26.1444C26.9274 25.7928 27.0563 25.2772 26.8688 24.8319C26.6461 24.3163 26.2125 24.1405 25.111 24.1405C24.2086 24.1405 24.1383 24.1639 23.8102 24.4803Z" fill="#0C0C0D"/>
<path d="M34.4268 19.7341C33.8526 20.3083 33.9346 21.0818 34.6143 21.5388C34.9659 21.7849 35.1182 21.8083 35.9268 21.7732C36.794 21.738 36.876 21.7146 37.1924 21.3513C37.6612 20.8357 37.6612 20.2614 37.1924 19.7927C36.8643 19.4646 36.8057 19.4529 35.7745 19.4529C34.8018 19.4529 34.6846 19.4763 34.4268 19.7341Z" fill="#0C0C0D"/>
<path d="M34.5912 24.3163C33.9467 24.6678 33.8764 25.6053 34.4389 26.1444C34.685 26.3788 34.8842 26.4256 35.6108 26.4608C36.6303 26.5194 37.1225 26.3553 37.3569 25.8866C37.6381 25.3592 37.5795 24.867 37.1928 24.4803C36.8647 24.1639 36.7944 24.1405 35.8686 24.1405C35.2592 24.1522 34.7787 24.2108 34.5912 24.3163Z" fill="#0C0C0D"/>
<path d="M29.0118 39.457C28.8711 39.4805 28.6133 39.668 28.4376 39.8789C28.1797 40.1836 28.1446 40.3242 28.1915 40.7109C28.2383 41.0273 28.3672 41.2852 28.5665 41.4492C28.8477 41.707 28.9766 41.7188 30.5001 41.7188C32.0235 41.7188 32.1524 41.707 32.4336 41.4492C32.6329 41.2852 32.7618 41.0273 32.8086 40.7109C32.8672 40.2891 32.8204 40.1719 32.5157 39.832L32.1641 39.4336L30.711 39.4102C29.9141 39.3984 29.1524 39.4219 29.0118 39.457Z" fill="#0C0C0D"/>
</g>
<defs>
<clipPath id="clip0_689_20">
<rect width="60" height="60" fill="white" transform="translate(0.5)"/>
</clipPath>
</defs>
</svg>
