<svg width="60" height="60" viewBox="0 0 60 60" fill="none" xmlns="http://www.w3.org/2000/svg">
<g clip-path="url(#clip0_743_922)">
<rect x="7" y="10" width="46" height="26" fill="#FFC107" fill-opacity="0.48"/>
<path d="M3.51626 4.28905C2.12173 4.66405 1.07876 5.54295 0.422507 6.91405L0.0592257 7.67577L0.0240694 24.9492C-0.0110868 43.7578 -0.0345243 42.9844 0.633444 44.1211C1.34829 45.3398 2.7311 46.2305 4.19594 46.418C4.62954 46.4648 9.16469 46.5117 14.2741 46.5234H23.5553V50.039V53.5547H22.1373C20.7311 53.5547 20.7194 53.5547 20.3795 53.8945C20.0163 54.2578 19.9225 54.8672 20.1569 55.3242C20.4733 55.9101 20.3092 55.8984 30.0006 55.8984C36.4225 55.8984 39.1178 55.8633 39.2936 55.7695C40.0319 55.3945 40.1959 54.4687 39.6217 53.8945C39.2819 53.5547 39.2702 53.5547 37.8639 53.5547H36.4459V50.039V46.5234H45.7389C50.8366 46.5117 55.3717 46.4648 55.8053 46.418C57.2819 46.2187 58.6413 45.3515 59.3561 44.1328C60.0241 42.9844 60.0006 43.7461 60.0006 25.2539C60.0006 7.07811 60.0123 7.74608 59.4264 6.5742C59.0866 5.92967 58.1842 5.01561 57.5631 4.6992C56.3327 4.06639 57.8092 4.10155 29.942 4.11327C7.62954 4.11327 4.07876 4.1367 3.51626 4.28905ZM56.3209 6.73827C56.9538 7.05467 57.3053 7.44139 57.5163 8.0742C57.6217 8.36717 57.6569 12.75 57.6569 25.3594C57.6569 41.4375 57.6452 42.2695 57.4342 42.7148C57.1295 43.3828 56.5084 43.8984 55.7819 44.0508C54.9381 44.2383 5.06313 44.2383 4.21938 44.0508C3.49282 43.8984 2.87173 43.3828 2.56704 42.7148C2.3561 42.2695 2.34438 41.4375 2.34438 25.3594C2.34438 12.914 2.37954 8.36717 2.48501 8.0742C2.69594 7.41795 3.01235 7.06639 3.65688 6.74998L4.26626 6.4453H30.0006H55.735L56.3209 6.73827ZM34.1022 50.039V53.5547H30.0006H25.8991V50.039V46.5234H30.0006H34.1022V50.039Z" fill="#060667"/>
<path d="M19.1367 13.5586C18.9961 13.582 18.75 13.7461 18.5859 13.9102L18.2812 14.2148V22.9219V31.6289L18.5625 31.957L18.8437 32.2852H30H41.1562L41.4375 31.957L41.7187 31.6289V22.9219V14.2148L41.4258 13.9219C41.2617 13.7578 40.9687 13.5938 40.7695 13.5469C40.1719 13.4297 33.7617 13.4766 32.8828 13.5938C31.9922 13.7227 30.9492 14.2148 30.3633 14.7891L30 15.1406L29.625 14.7656C29.0625 14.2148 28.0078 13.7227 27.1055 13.5938C26.3437 13.4883 19.6758 13.4531 19.1367 13.5586ZM27.3633 16.043C27.8672 16.2539 28.3594 16.7461 28.6055 17.2852C28.8047 17.7188 28.8281 18.1641 28.8281 23.8711V30H24.7266H20.625V22.8984V15.7969L23.8242 15.8438C26.0391 15.8789 27.1172 15.9375 27.3633 16.043ZM39.375 22.9102V30H35.2734H31.1719V23.8711C31.1719 18.2109 31.1953 17.7188 31.3945 17.2852C31.6758 16.6641 32.3437 16.0898 32.8945 15.9961C33.1406 15.9492 33.3984 15.9023 33.457 15.8789C33.5273 15.8555 34.875 15.832 36.4805 15.832L39.375 15.8203V22.9102Z" fill="#060667"/>
<path d="M23.3086 19.7927C22.8398 20.2614 22.8398 20.8357 23.3086 21.3513C23.625 21.7146 23.707 21.738 24.5742 21.7732C25.3828 21.8083 25.5352 21.7849 25.8867 21.5388C26.5664 21.0818 26.6484 20.3083 26.0742 19.7341C25.8164 19.4763 25.6992 19.4529 24.7266 19.4529C23.6953 19.4529 23.6367 19.4646 23.3086 19.7927Z" fill="#060667"/>
<path d="M23.3102 24.4803C22.9235 24.867 22.8649 25.3592 23.1461 25.8866C23.3805 26.3553 23.8727 26.5194 24.8922 26.4608C25.6188 26.4256 25.818 26.3788 26.0641 26.1444C26.4274 25.7928 26.5563 25.2772 26.3688 24.8319C26.1461 24.3163 25.7125 24.1405 24.611 24.1405C23.7086 24.1405 23.6383 24.1639 23.3102 24.4803Z" fill="#060667"/>
<path d="M33.9268 19.7341C33.3526 20.3083 33.4346 21.0818 34.1143 21.5388C34.4659 21.7849 34.6182 21.8083 35.4268 21.7732C36.294 21.738 36.376 21.7146 36.6924 21.3513C37.1612 20.8357 37.1612 20.2614 36.6924 19.7927C36.3643 19.4646 36.3057 19.4529 35.2745 19.4529C34.3018 19.4529 34.1846 19.4763 33.9268 19.7341Z" fill="#060667"/>
<path d="M34.0912 24.3163C33.4467 24.6678 33.3764 25.6053 33.9389 26.1444C34.185 26.3788 34.3842 26.4256 35.1108 26.4608C36.1303 26.5194 36.6225 26.3553 36.8569 25.8866C37.1381 25.3592 37.0795 24.867 36.6928 24.4803C36.3647 24.1639 36.2944 24.1405 35.3686 24.1405C34.7592 24.1522 34.2787 24.2108 34.0912 24.3163Z" fill="#060667"/>
<path d="M28.5118 39.457C28.3711 39.4805 28.1133 39.668 27.9376 39.8789C27.6797 40.1836 27.6446 40.3242 27.6915 40.7109C27.7383 41.0273 27.8672 41.2852 28.0665 41.4492C28.3477 41.707 28.4766 41.7188 30.0001 41.7188C31.5235 41.7188 31.6524 41.707 31.9336 41.4492C32.1329 41.2852 32.2618 41.0273 32.3086 40.7109C32.3672 40.2891 32.3204 40.1719 32.0157 39.832L31.6641 39.4336L30.211 39.4102C29.4141 39.3984 28.6524 39.4219 28.5118 39.457Z" fill="#060667"/>
</g>
<defs>
<clipPath id="clip0_743_922">
<rect width="60" height="60" fill="white"/>
</clipPath>
</defs>
</svg>
