<svg width="80" height="81" viewBox="0 0 80 81" fill="none" xmlns="http://www.w3.org/2000/svg">
<path d="M16.667 60.5H63.3337V63.8333H16.667V60.5Z" fill="#F86B00"/>
<path d="M16.667 60.4998V67.1665H1.66699L5.00033 62.1665L1.66699 57.1665H11.667V60.4998H16.667Z" fill="#FFA233"/>
<path d="M78.334 57.1665L75.0007 62.1665L78.334 67.1665H63.334V60.4998H68.334V57.1665H78.334Z" fill="#FFA233"/>
<path d="M56.6673 4.24984V18.8332H23.334V4.24984L33.334 8.83317L40.0007 2.1665L46.6673 8.83317L56.6673 4.24984Z" fill="#FFDC56"/>
<path d="M15.0003 28.8332L18.0837 46.5998L13.0337 43.4332C11.5949 42.534 10.4086 41.2835 9.58642 39.7994C8.7642 38.3153 8.33309 36.6465 8.33366 34.9498V31.4665C7.2847 30.5331 6.44533 29.3881 5.8708 28.1069C5.29627 26.8257 4.9996 25.4373 5.00033 24.0332V18.2498C3.95137 17.3164 3.112 16.1714 2.53746 14.8902C1.96293 13.609 1.66627 12.2206 1.66699 10.8165V2.1665L10.5337 5.48317C11.9298 6.01051 13.191 6.84196 14.2259 7.91722C15.2608 8.99248 16.0434 10.2846 16.517 11.6998L19.8503 21.7332L15.0003 28.8332Z" fill="#D6E0FB"/>
<path d="M75.0004 18.2498V24.0332C75.0011 25.4373 74.7044 26.8257 74.1299 28.1069C73.5554 29.3881 72.716 30.5331 71.6671 31.4665V34.9498C71.6676 36.6465 71.2365 38.3153 70.4143 39.7994C69.5921 41.2835 68.4058 42.534 66.9671 43.4332L61.9171 46.5998L65.0004 28.8332L60.1504 21.7332L63.4837 11.6998C63.9573 10.2846 64.7399 8.99248 65.7748 7.91722C66.8097 6.84196 68.0709 6.01051 69.4671 5.48317L78.3337 2.1665V10.8165C78.3344 12.2206 78.0378 13.609 77.4632 14.8902C76.8887 16.1714 76.0493 17.3164 75.0004 18.2498Z" fill="#D6E0FB"/>
<path d="M19.85 21.7334L21.75 18.9834L25 25.5001L21.6667 30.5001L15 28.8334L19.85 21.7334Z" fill="#4F4EFF"/>
<path d="M18.0833 46.5997L15 28.833L21.6667 30.4997L26.6667 63.833L21.6667 67.1663L18.0833 46.5997Z" fill="#805BFF"/>
<path d="M60.15 21.7334L65 28.8334L58.3333 30.5001L55 25.5001L58.25 18.9834L60.15 21.7334Z" fill="#5C52FF"/>
<path d="M61.9173 46.5997L58.334 67.1663L53.334 63.833L58.334 30.4997L65.0007 28.833L61.9173 46.5997Z" fill="#805BFF"/>
<path d="M58.25 18.983L55 25.4997H25L21.75 18.983L21.85 18.833H58.15L58.25 18.983Z" fill="#805BFF"/>
<path d="M55.0003 25.5L58.3337 30.5L53.3337 63.8333L40.0003 72.1667L26.667 63.8333L21.667 30.5L25.0003 25.5H55.0003Z" fill="#AF77FF"/>
<path d="M55.0007 25.5H25.084C25.4846 33.2344 28.712 40.5522 34.1532 46.0635C39.5944 51.5747 46.8704 54.8955 54.599 55.395L58.334 30.5L55.0007 25.5Z" fill="#B988FF"/>
<path d="M68.3337 57.1667V60.5H63.3337H59.5003H53.8337H26.167H20.5003H16.667H11.667V57.1667V50.5H18.767H24.667H55.3337H61.2337H68.3337V57.1667Z" fill="#FFDC56"/>
<path d="M26.667 63.833L21.667 67.1663L40.0003 78.833V72.1663L26.667 63.833Z" fill="#514EF0"/>
<path d="M40 72.1663V78.833L58.3333 67.1663L53.3333 63.833L40 72.1663Z" fill="#5C52FF"/>
<path d="M68.334 57.1665V60.4998H63.334V62.1665H75.0007L78.334 57.1665H68.334Z" fill="#FFB337"/>
<path d="M11.667 57.1665V60.4998H16.667V62.1665H5.00033L1.66699 57.1665H11.667Z" fill="#FFB337"/>
<path d="M13.334 52.1665H66.6673V58.8332H13.334V52.1665Z" fill="#FFF86A"/>
<path d="M46.6673 8.83317L40.0007 2.1665L33.334 8.83317L23.334 4.24984V9.24984L31.2273 12.8682C31.845 13.1523 32.5349 13.2406 33.2043 13.1215C33.8736 13.0023 34.4906 12.6813 34.9723 12.2015L40.0007 7.16651L45.029 12.1948C45.5107 12.6746 46.1277 12.9957 46.7971 13.1148C47.4664 13.234 48.1563 13.1456 48.774 12.8615L56.6673 9.24984V4.24984L46.6673 8.83317Z" fill="#FFF86A"/>
<path d="M23.334 17.1665H56.6673V18.8332H23.334V17.1665Z" fill="#FFCA46"/>
<path d="M13.3337 34.9498V31.4665C12.2847 30.5331 11.4453 29.3881 10.8708 28.1069C10.2963 26.8257 9.9996 25.4373 10.0003 24.0332V18.2498C8.95137 17.3164 8.112 16.1714 7.53746 14.8902C6.96293 13.609 6.66627 12.2206 6.66699 10.8165V4.0365L1.66699 2.1665V10.8165C1.66627 12.2206 1.96293 13.609 2.53746 14.8902C3.112 16.1714 3.95137 17.3164 5.00033 18.2498V24.0332C4.9996 25.4373 5.29627 26.8257 5.8708 28.1069C6.44533 29.3881 7.2847 30.5331 8.33366 31.4665V34.9498C8.33309 36.6465 8.7642 38.3153 9.58642 39.7994C10.4086 41.2835 11.5949 42.534 13.0337 43.4332L18.0837 46.5998L17.4637 43.0248C16.1876 42.0996 15.1483 40.8858 14.4305 39.4825C13.7128 38.0792 13.337 36.5261 13.3337 34.9498Z" fill="#E9E9FF"/>
<path d="M73.3337 4.0365V12.4832C73.3344 13.8873 73.0377 15.2757 72.4632 16.5569C71.8887 17.8381 71.0493 18.9831 70.0003 19.9165V25.6998C70.0011 27.104 69.7044 28.4923 69.1299 29.7735C68.5553 31.0548 67.716 32.1998 66.667 33.1332V36.6165C66.6648 38.2619 66.2566 39.8814 65.4786 41.3312C64.7006 42.7811 63.5768 44.0166 62.207 44.9282L61.917 46.5948L66.967 43.4282C68.405 42.5294 69.5908 41.2797 70.413 39.7966C71.2352 38.3135 71.6667 36.6456 71.667 34.9498V31.4665C72.716 30.5331 73.5553 29.3881 74.1299 28.1069C74.7044 26.8257 75.0011 25.4373 75.0003 24.0332V18.2498C76.0493 17.3164 76.8887 16.1714 77.4632 14.8902C78.0377 13.609 78.3344 12.2206 78.3337 10.8165V2.1665L73.3337 4.0365Z" fill="#E9E9FF"/>
<path d="M26.6665 63.8333L26.1665 60.5H20.5049L21.0865 63.8333H26.1665H26.6665Z" fill="#514EF0"/>
<path d="M53.834 60.5L53.334 63.8333H53.834H58.914L59.4956 60.5H53.834Z" fill="#514EF0"/>
<path d="M26.167 60.5L26.667 63.8333H53.3337L53.8337 60.5H26.167Z" fill="#805BFF"/>
<path d="M71.6673 57.1665V62.1665H66.6673V67.1665H63.334V60.4998H68.334V57.1665H71.6673Z" fill="#FF8D1F"/>
<path d="M8.33398 57.1665V62.1665H13.334V67.1665H16.6673V60.4998H11.6673V57.1665H8.33398Z" fill="#FF8D1F"/>
<path d="M24.167 51.3333C24.167 51.5544 24.2548 51.7663 24.4111 51.9226C24.5673 52.0789 24.7793 52.1667 25.0003 52.1667H50.0003C50.2213 52.1667 50.4333 52.0789 50.5896 51.9226C50.7458 51.7663 50.8336 51.5544 50.8336 51.3333C50.8336 51.1123 50.7458 50.9004 50.5896 50.7441C50.4333 50.5878 50.2213 50.5 50.0003 50.5H25.0003C24.7793 50.5 24.5673 50.5878 24.4111 50.7441C24.2548 50.9004 24.167 51.1123 24.167 51.3333Z" fill="#FFCA46"/>
<path d="M52.5 51.3333C52.5 51.5544 52.5878 51.7663 52.7441 51.9226C52.9004 52.0789 53.1123 52.1667 53.3333 52.1667H55C55.221 52.1667 55.433 52.0789 55.5893 51.9226C55.7455 51.7663 55.8333 51.5544 55.8333 51.3333C55.8333 51.1123 55.7455 50.9004 55.5893 50.7441C55.433 50.5878 55.221 50.5 55 50.5H53.3333C53.1123 50.5 52.9004 50.5878 52.7441 50.7441C52.5878 50.9004 52.5 51.1123 52.5 51.3333Z" fill="#FFCA46"/>
<path d="M25.8337 58.8335H17.5003C17.0401 58.8335 16.667 59.2066 16.667 59.6668C16.667 60.1271 17.0401 60.5002 17.5003 60.5002H25.8337C26.2939 60.5002 26.667 60.1271 26.667 59.6668C26.667 59.2066 26.2939 58.8335 25.8337 58.8335Z" fill="#FFCA46"/>
<path d="M30.834 58.8335H29.1673C28.7071 58.8335 28.334 59.2066 28.334 59.6668C28.334 60.1271 28.7071 60.5002 29.1673 60.5002H30.834C31.2942 60.5002 31.6673 60.1271 31.6673 59.6668C31.6673 59.2066 31.2942 58.8335 30.834 58.8335Z" fill="#FFCA46"/>
<path d="M53.8321 34.3734C54.9008 33.3047 54.561 31.2322 53.0731 29.7443C51.5852 28.2564 49.5126 27.9166 48.4439 28.9853C47.3752 30.054 47.715 32.1266 49.2029 33.6145C50.6908 35.1024 52.7633 35.4422 53.8321 34.3734Z" fill="#EAF6FF"/>
<path d="M54.1518 39.7233C54.6887 39.1864 54.5183 38.1453 53.7711 37.3981C53.0239 36.6509 51.9829 36.4805 51.4459 37.0175C50.9089 37.5544 51.0794 38.5955 51.8266 39.3427C52.5738 40.0899 53.6148 40.2603 54.1518 39.7233Z" fill="#EAF6FF"/>
<path d="M34.7117 43.2085C34.9805 42.9397 34.8956 42.4189 34.522 42.0453C34.1484 41.6717 33.6276 41.5867 33.3588 41.8556C33.09 42.1244 33.1749 42.6451 33.5485 43.0188C33.9221 43.3924 34.4429 43.4773 34.7117 43.2085Z" fill="#EAF6FF"/>
</svg>
