<svg width="80" height="80" viewBox="0 0 80 80" fill="none" xmlns="http://www.w3.org/2000/svg">
<path d="M27.267 8.33317L40.0003 19.9998H31.667L11.667 1.6665H20.0003L27.267 8.33317Z" fill="#6D5DFF"/>
<path d="M52.7333 8.33317L60 1.6665H70L48.3333 19.9998H40L52.7333 8.33317Z" fill="#6D5DFF"/>
<path d="M31.667 19.9998H26.667L1.66699 1.6665H11.667L31.667 19.9998Z" fill="#A166F5"/>
<path d="M78.334 1.6665L53.334 19.9998H48.334L70.0006 1.6665H78.334Z" fill="#A166F5"/>
<path d="M52.7333 8.33301L39.9999 19.9997L27.2666 8.33301H52.7333Z" fill="white"/>
<path d="M40.0003 20H53.3336V28.3333L53.2337 28.5167C49.204 26.2122 44.6424 24.9999 40.0003 24.9999C35.3582 24.9999 30.7966 26.2122 26.767 28.5167L26.667 28.3333V20H40.0003Z" fill="#FFDC56"/>
<path d="M40 71.6665C51.0457 71.6665 60 62.7122 60 51.6665C60 40.6208 51.0457 31.6665 40 31.6665C28.9543 31.6665 20 40.6208 20 51.6665C20 62.7122 28.9543 71.6665 40 71.6665Z" fill="#FFDC56"/>
<path d="M53.2337 28.5167C58.8517 31.7295 63.1091 36.8765 65.2114 42.9973C67.3138 49.1182 67.1176 55.7948 64.6594 61.7817C62.2012 67.7685 57.6489 72.6565 51.8519 75.5339C46.0549 78.4112 39.409 79.0813 33.1543 77.4192C26.8995 75.757 21.4631 71.8761 17.8592 66.5006C14.2553 61.125 12.7302 54.6219 13.5683 48.2045C14.4064 41.7872 17.5506 35.8939 22.4141 31.6242C27.2777 27.3545 33.5285 25 40.0004 25C44.6427 24.9977 49.2049 26.2101 53.2337 28.5167ZM60.0004 51.6667C60.0004 47.711 58.8274 43.8442 56.6298 40.5553C54.4321 37.2663 51.3086 34.7028 47.654 33.1891C43.9995 31.6753 39.9782 31.2793 36.0986 32.051C32.2189 32.8227 28.6553 34.7275 25.8582 37.5245C23.0612 40.3216 21.1564 43.8852 20.3847 47.7649C19.613 51.6445 20.009 55.6658 21.5228 59.3203C23.0365 62.9749 25.6 66.0984 28.889 68.2961C32.1779 70.4937 36.0447 71.6667 40.0004 71.6667C45.3047 71.6667 50.3918 69.5595 54.1425 65.8088C57.8932 62.0581 60.0004 56.971 60.0004 51.6667Z" fill="#FFB337"/>
<path d="M31.3803 4.99984H48.6203C49.5043 4.99965 50.352 4.64834 50.977 4.02317L53.3336 1.6665H26.667L29.0237 4.02317C29.6486 4.64834 30.4963 4.99965 31.3803 4.99984Z" fill="#4543FE"/>
<path d="M26.6668 44.9997C26.6669 41.3295 27.6834 37.731 29.6034 34.603C27.0161 36.1755 24.8198 38.3153 23.1804 40.8608C21.541 43.4063 20.5014 46.291 20.14 49.2971C19.7786 52.3032 20.1049 55.3521 21.0942 58.2136C22.0836 61.0751 23.7101 63.6745 25.851 65.8154C27.992 67.9564 30.5913 69.5829 33.4529 70.5723C36.3144 71.5616 39.3633 71.8879 42.3694 71.5265C45.3755 71.1651 48.2602 70.1255 50.8057 68.4861C53.3512 66.8467 55.491 64.6504 57.0634 62.063C54.0342 63.9169 50.5654 64.9294 47.0145 64.9963C43.4636 65.0632 39.9592 64.182 36.8622 62.4435C33.7653 60.705 31.188 58.1722 29.3959 55.106C27.6038 52.0398 26.6617 48.5512 26.6668 44.9997Z" fill="#FFCA46"/>
<path d="M42.5 20H30.8333C30.3731 20 30 20.3731 30 20.8333C30 21.2936 30.3731 21.6667 30.8333 21.6667H42.5C42.9602 21.6667 43.3333 21.2936 43.3333 20.8333C43.3333 20.3731 42.9602 20 42.5 20Z" fill="#FFF86A"/>
<path d="M47.5 20H45.8333C45.3731 20 45 20.3731 45 20.8333C45 21.2936 45.3731 21.6667 45.8333 21.6667H47.5C47.9602 21.6667 48.3333 21.2936 48.3333 20.8333C48.3333 20.3731 47.9602 20 47.5 20Z" fill="#FFF86A"/>
<path d="M40.0007 30C35.7154 30 31.5264 31.2707 27.9633 33.6515C24.4002 36.0323 21.6232 39.4161 19.9833 43.3752C18.3434 47.3343 17.9143 51.6907 18.7503 55.8936C19.5863 60.0965 21.6499 63.9572 24.68 66.9873C27.7101 70.0174 31.5708 72.081 35.7737 72.917C39.9766 73.753 44.3331 73.324 48.2921 71.6841C52.2512 70.0442 55.6351 67.2671 58.0158 63.704C60.3966 60.141 61.6673 55.9519 61.6673 51.6667C61.6673 45.9203 59.3846 40.4093 55.3213 36.346C51.258 32.2827 45.747 30 40.0007 30ZM40.0007 71.6667C36.045 71.6667 32.1782 70.4937 28.8893 68.2961C25.6003 66.0984 23.0368 62.9749 21.5231 59.3203C20.0093 55.6658 19.6133 51.6445 20.385 47.7649C21.1567 43.8852 23.0615 40.3216 25.8585 37.5245C28.6556 34.7275 32.2192 32.8227 36.0989 32.051C39.9785 31.2793 43.9998 31.6753 47.6543 33.1891C51.3088 34.7028 54.4324 37.2663 56.63 40.5553C58.8277 43.8442 60.0007 47.711 60.0007 51.6667C60.0007 56.971 57.8935 62.0581 54.1428 65.8088C50.3921 69.5595 45.305 71.6667 40.0007 71.6667Z" fill="#FF711F"/>
<path d="M26.767 28.5167C30.7966 26.2123 35.3582 25 40.0003 25C44.6424 25 49.204 26.2123 53.2337 28.5167L53.3336 28.3334V26.6667C49.2308 24.4761 44.6514 23.3301 40.0003 23.3301C35.3493 23.3301 30.7698 24.4761 26.667 26.6667V28.3334L26.767 28.5167Z" fill="#FFA233"/>
<path d="M53.3333 1.6665L50.9767 4.02317C50.3517 4.64833 49.504 4.99965 48.62 4.99984H31.38C30.496 4.99965 29.6483 4.64833 29.0233 4.02317L26.6667 1.6665H20L27.2667 8.33317H52.7333L60 1.6665H53.3333Z" fill="#2F35FF"/>
<path d="M28.0303 16.6665L31.6669 19.9998H40.0003L36.3619 16.6665H28.0303Z" fill="#6354FF"/>
<path d="M43.6383 16.6665L40 19.9998H48.3333L52.2733 16.6665H43.6383Z" fill="#6354FF"/>
<path d="M22.1221 16.6665L26.6671 19.9998H31.6671L28.0304 16.6665H22.1221Z" fill="#805BFF"/>
<path d="M48.334 19.9998H53.334L57.879 16.6665H52.274L48.334 19.9998Z" fill="#805BFF"/>
<path d="M55.4952 45.5439C56.5639 44.4751 56.2241 42.4026 54.7362 40.9147C53.2483 39.4268 51.1757 39.087 50.107 40.1557C49.0383 41.2244 49.3781 43.297 50.866 44.7849C52.3539 46.2728 54.4264 46.6126 55.4952 45.5439Z" fill="#EAF6FF"/>
<path d="M55.8139 50.8918C56.3508 50.3548 56.1804 49.3138 55.4332 48.5666C54.686 47.8194 53.645 47.649 53.108 48.1859C52.571 48.7229 52.7415 49.7639 53.4887 50.5111C54.2359 51.2583 55.2769 51.4288 55.8139 50.8918Z" fill="#EAF6FF"/>
<path d="M49.7156 39.3804C49.9844 39.1116 49.8995 38.5908 49.5259 38.2172C49.1523 37.8436 48.6315 37.7586 48.3627 38.0274C48.0939 38.2962 48.1788 38.817 48.5524 39.1906C48.926 39.5642 49.4468 39.6492 49.7156 39.3804Z" fill="#EAF6FF"/>
</svg>
