<svg width="80" height="81" viewBox="0 0 80 81" fill="none" xmlns="http://www.w3.org/2000/svg">
<path d="M28.3337 11.9165V18.1665C23.6142 19.4703 18.7462 20.1593 13.8503 20.2165C4.86699 19.8665 3.33366 15.2498 3.33366 15.2498L10.0003 13.5832L5.35033 12.0998C4.24516 11.5426 3.31595 10.69 2.66579 9.63682C2.01562 8.58361 1.66991 7.37089 1.66699 6.13317V1.9165C1.66699 1.9165 18.3337 11.9165 28.3337 11.9165Z" fill="#FF8F75"/>
<path d="M76.667 15.2498C76.667 15.2498 75.1336 19.8665 66.1503 20.2165C61.2544 20.1593 56.3864 19.4703 51.667 18.1665V11.9165C61.667 11.9165 78.3336 1.9165 78.3336 1.9165V6.13317C78.3307 7.37089 77.985 8.58361 77.3349 9.63682C76.6847 10.69 75.7555 11.5426 74.6503 12.0998L70.0003 13.5832L76.667 15.2498Z" fill="#FF8F75"/>
<path d="M51.6673 11.9165V18.1665C43.034 15.7165 40.0006 11.9165 40.0006 11.9165C40.0006 11.9165 36.9673 15.7165 28.334 18.1665V3.99984L35.334 8.58317L40.0006 1.9165L44.6673 8.58317L51.6673 3.99984V11.9165Z" fill="#FFDC56"/>
<path d="M41.9669 70.6998L40.0002 71.9165L38.0836 70.6165L29.9836 65.1331C26.3656 62.6331 23.4132 59.2871 21.3828 55.3862C19.3525 51.4852 18.3057 47.1474 18.3335 42.7498V25.2498C23.6726 25.4017 28.9881 24.4836 33.9669 22.5498L40.0002 28.5831L46.0336 22.5498C51.0124 24.4836 56.3278 25.4017 61.6669 25.2498V43.3331C61.7024 47.9171 60.5667 52.4342 58.3675 56.4564C56.1684 60.4785 52.9785 63.8724 49.1002 66.3165L41.9669 70.6998Z" fill="#E9E9FF"/>
<path d="M66.1503 20.2165C66.867 20.2332 67.5837 20.2498 68.3337 20.2498V42.8498C68.3353 48.6558 66.8198 54.3615 63.9373 59.4015C61.0549 64.4414 56.9055 68.6407 51.9003 71.5832L45.167 75.5332L45.0003 75.2498L41.967 70.6998L49.1003 66.3165C52.9786 63.8725 56.1685 60.4785 58.3677 56.4564C60.5669 52.4343 61.7025 47.9172 61.667 43.3332V25.2498C56.328 25.4017 51.0125 24.4837 46.0337 22.5498C43.734 21.7296 41.665 20.3693 40.0003 18.5832C38.3357 20.3693 36.2666 21.7296 33.967 22.5498C28.9882 24.4837 23.6727 25.4017 18.3337 25.2498V42.7498C18.3058 47.1474 19.3526 51.4853 21.3829 55.3862C23.4133 59.2871 26.3658 62.6331 29.9837 65.1332L38.0837 70.6165L35.0003 75.2498L34.9503 75.3165L26.8837 70.0998C22.214 67.0754 18.3753 62.9305 15.7175 58.0428C13.0597 53.1552 11.6672 47.6801 11.667 42.1165V20.2498C12.417 20.2498 13.1337 20.2332 13.8503 20.2165C18.7462 20.1593 23.6142 19.4703 28.3337 18.1665C36.967 15.7165 40.0003 11.9165 40.0003 11.9165C40.0003 11.9165 43.0337 15.7165 51.667 18.1665C56.3864 19.4703 61.2544 20.1593 66.1503 20.2165Z" fill="#A166F5"/>
<path d="M40.0006 11.9163C40.0006 11.9163 43.034 15.7163 51.6673 18.1663V14.833C43.034 12.383 40.0006 8.58301 40.0006 8.58301C40.0006 8.58301 36.9673 12.383 28.334 14.833V18.1663C36.9673 15.7163 40.0006 11.9163 40.0006 11.9163Z" fill="#FFB337"/>
<path d="M61.6673 22.7501C56.6614 22.8917 51.6769 22.0421 47.0006 20.2501C45.1193 19.5668 43.4091 18.4822 41.9889 17.0717C41.7564 16.7746 41.4598 16.5337 41.1214 16.367C40.7829 16.2002 40.4112 16.1118 40.0339 16.1084C39.655 16.1115 39.2812 16.1963 38.938 16.3571C38.5949 16.5179 38.2905 16.7508 38.0456 17.0401C36.6215 18.4694 34.8986 19.5656 33.0006 20.2501C28.3242 22.0417 23.3398 22.8913 18.334 22.7501C17.6709 22.7501 17.035 23.0135 16.5662 23.4823C16.0973 23.9511 15.834 24.587 15.834 25.2501V42.7501C15.7953 47.5581 16.9375 52.3021 19.1602 56.5657C21.383 60.8293 24.6183 64.482 28.5823 67.2034L38.5973 73.9851C38.9968 74.2561 39.4662 74.4057 39.9489 74.4158C40.4316 74.4258 40.9068 74.2959 41.3173 74.0417L50.4089 68.4467C54.6439 65.7712 58.1287 62.0624 60.5356 57.6692C62.9424 53.2759 64.1922 48.3427 64.1673 43.3334V25.2501C64.1673 24.587 63.9039 23.9511 63.435 23.4823C62.9662 23.0135 62.3303 22.7501 61.6673 22.7501ZM61.6673 43.3334C61.7028 47.9174 60.5671 52.4345 58.3679 56.4566C56.1687 60.4788 52.9788 63.8727 49.1006 66.3167L41.9673 70.7001L40.0006 71.9167L38.0839 70.6167L29.984 65.1334C26.366 62.6333 23.4136 59.2874 21.3832 55.3864C19.3529 51.4855 18.3061 47.1476 18.334 42.7501V25.2501C23.673 25.4019 28.9885 24.4839 33.9673 22.5501C36.2669 21.7298 38.336 20.3695 40.0006 18.5834C41.6652 20.3695 43.7343 21.7298 46.0339 22.5501C51.0128 24.4839 56.3282 25.4019 61.6673 25.2501V43.3334Z" fill="#7655FF"/>
<path d="M40.0002 18.583C38.3356 20.3691 36.2665 21.7294 33.9669 22.5497C28.9881 24.4835 23.6726 25.4015 18.3335 25.2497V42.7497C18.3057 47.1473 19.3525 51.4851 21.3828 55.386C23.4132 59.287 26.3656 62.6329 29.9836 65.133L38.0836 70.6163L40.0002 71.9163L41.9669 70.6997L49.1002 66.3163C52.9785 63.8723 56.1684 60.4784 58.3675 56.4562C60.5667 52.4341 61.7024 47.917 61.6669 43.333V25.2497C56.3278 25.4015 51.0124 24.4835 46.0336 22.5497C43.7339 21.7294 41.6648 20.3691 40.0002 18.583ZM59.1669 43.333C59.1946 47.488 58.1652 51.5818 56.1753 55.2295C54.1854 58.8772 51.3005 61.9588 47.7919 64.1847L40.6586 68.568L40.0702 68.933L31.3936 63.058C28.1059 60.7955 25.4238 57.7607 23.5826 54.2199C21.7415 50.679 20.7975 46.7404 20.8335 42.7497V27.6997C25.6629 27.6005 30.436 26.6411 34.9286 24.8663C36.7377 24.1307 38.4427 23.1613 40.0002 21.983C41.5544 23.1573 43.2562 24.1222 45.0619 24.853C49.5567 26.6337 54.3333 27.5977 59.1669 27.6997V43.333Z" fill="#C9D1F6"/>
<path d="M45.1669 75.5334L40.0002 78.5834L34.9502 75.3167L35.0002 75.25L38.0835 70.6167L40.0002 71.9167L41.9669 70.7L45.0002 75.25L45.1669 75.5334Z" fill="#FFDC56"/>
<path d="M46.0335 22.5497L40.0001 28.583L33.9668 22.5497C36.2664 21.7294 38.3355 20.3691 40.0001 18.583C41.6648 20.3691 43.7338 21.7294 46.0335 22.5497Z" fill="#FFDC56"/>
<path d="M43.79 21.4597C42.3627 20.7384 41.0785 19.7636 40 18.583C38.9214 19.7636 37.6372 20.7384 36.21 21.4597L40 25.2497L43.79 21.4597Z" fill="#FF8F75"/>
<path d="M35.8537 24.4365C35.5487 24.5765 35.2603 24.7199 34.9287 24.8582C31.2893 26.3104 27.4494 27.1978 23.542 27.4899C24.3782 35.311 27.7083 42.6558 33.0401 48.4387C38.3719 54.2216 45.4226 58.1359 53.1503 59.6032C57.0385 55.0747 59.1733 49.3018 59.167 43.3332V27.6999C54.3334 27.5979 49.5568 26.6339 45.062 24.8532C44.7287 24.7165 44.4487 24.5749 44.147 24.4365L40.0003 28.5832L35.8537 24.4365Z" fill="white"/>
<path d="M43.5882 73.1317L41.9666 70.7L39.9999 71.9167L38.0832 70.6167L36.5049 72.9884L39.9999 75.25L43.5882 73.1317Z" fill="#FF8F75"/>
<path d="M78.3336 6.13317V1.9165C78.3336 1.9165 61.667 11.9165 51.667 11.9165V18.1665C53.3419 18.6492 55.0423 19.0387 56.7603 19.3332C56.9766 17.7424 57.7614 16.2837 58.9697 15.2267C60.1781 14.1697 61.7282 13.5859 63.3337 13.5832H70.0003L74.6503 12.0998C75.7555 11.5426 76.6847 10.69 77.3349 9.63682C77.985 8.58362 78.3307 7.37089 78.3336 6.13317Z" fill="#FFAB6F"/>
<path d="M1.66699 6.13317V1.9165C1.66699 1.9165 18.3337 11.9165 28.3337 11.9165V18.1665C26.6587 18.6492 24.9584 19.0387 23.2403 19.3332C23.0241 17.7424 22.2393 16.2837 21.0309 15.2267C19.8226 14.1697 18.2724 13.5859 16.667 13.5832H10.0003L5.35033 12.0998C4.24516 11.5426 3.31595 10.69 2.66579 9.63682C2.01562 8.58362 1.66991 7.37089 1.66699 6.13317Z" fill="#FFAB6F"/>
<path d="M49.1573 12.7811C49.694 12.244 49.5233 11.203 48.7758 10.4561C48.0283 9.70912 46.9872 9.53906 46.4504 10.0762C45.9137 10.6134 46.0845 11.6543 46.8319 12.4013C47.5794 13.1482 48.6205 13.3183 49.1573 12.7811Z" fill="#EAF6FF"/>
<path d="M29.1572 51.1146C29.694 50.5775 29.5232 49.5365 28.7758 48.7896C28.0283 48.0426 26.9872 47.8726 26.4504 48.4097C25.9137 48.9469 26.0845 49.9878 26.8319 50.7348C27.5794 51.4817 28.6205 51.6518 29.1572 51.1146Z" fill="white"/>
<path d="M33.0548 11.2733C33.3235 11.0044 33.2384 10.4836 32.8647 10.1102C32.4909 9.73668 31.9701 9.65192 31.7014 9.92082C31.4327 10.1897 31.5178 10.7105 31.8915 11.0839C32.2653 11.4574 32.7861 11.5422 33.0548 11.2733Z" fill="#EAF6FF"/>
<path d="M35.5032 57.4334C36.5715 56.3643 36.231 54.2918 34.7426 52.8045C33.2542 51.3171 31.1815 50.978 30.1131 52.0471C29.0448 53.1162 29.3853 55.1887 30.8737 56.676C32.3621 58.1634 34.4348 58.5025 35.5032 57.4334Z" fill="white"/>
</svg>
