<svg width="45" height="333" viewBox="0 0 45 333" fill="none" xmlns="http://www.w3.org/2000/svg">
<path d="M41 1.79217e-06C43.2091 1.88873e-06 45.036 1.80467 44.6454 3.97899C44.3607 5.56324 43.9062 7.11617 43.2873 8.61038C42.1566 11.3402 40.4992 13.8206 38.4099 15.9099C36.3206 17.9992 33.8402 19.6566 31.1104 20.7873C28.3806 21.918 25.4547 22.5 22.5 22.5C19.5453 22.5 16.6194 21.918 13.8896 20.7873C11.1598 19.6566 8.67941 17.9992 6.5901 15.9099C4.50078 13.8206 2.84344 11.3402 1.71271 8.61038C1.09379 7.11617 0.639277 5.56324 0.354625 3.97899C-0.0360492 1.80467 1.79086 7.8281e-08 4 1.74846e-07L41 1.79217e-06Z" fill="#F2F0E9"/>
<path d="M41 332.5C43.2091 332.5 45.036 330.695 44.6454 328.521C44.3607 326.937 43.9062 325.384 43.2873 323.89C42.1566 321.16 40.4992 318.679 38.4099 316.59C36.3206 314.501 33.8402 312.843 31.1104 311.713C28.3806 310.582 25.4547 310 22.5 310C19.5453 310 16.6194 310.582 13.8896 311.713C11.1598 312.843 8.67941 314.501 6.5901 316.59C4.50078 318.679 2.84344 321.16 1.71271 323.89C1.09379 325.384 0.639277 326.937 0.354625 328.521C-0.0360492 330.695 1.79086 332.5 4 332.5L22.5 332.5H41Z" fill="#F2F0E9"/>
<line x1="22.5" y1="57" x2="22.5" y2="275" stroke="black" stroke-opacity="0.2" stroke-dasharray="8 8"/>
</svg>
