<svg width="62" height="62" viewBox="0 0 62 62" fill="none" xmlns="http://www.w3.org/2000/svg">
<g clip-path="url(#clip0_749_269)">
<path d="M38.3867 20.1016H20.2227C19.2187 20.1016 18.4062 19.2891 18.4062 18.2852V11.0195C18.4062 10.0155 19.2187 9.20312 20.2227 9.20312H38.3867C39.3907 9.20312 40.2031 10.0155 40.2031 11.0195V18.2852C40.2031 19.2891 39.3907 20.1016 38.3867 20.1016Z" fill="#FFD580"/>
<path d="M50.5695 2.46971C49.86 1.76022 48.7105 1.76022 48.001 2.46971L45.6524 4.81832L43.3038 2.46971C42.5943 1.76022 41.4447 1.76022 40.7352 2.46971C40.0258 3.1792 40.0258 4.32874 40.7352 5.03823L44.3681 8.67104C44.7229 9.02585 45.1876 9.20325 45.6523 9.20325C46.1169 9.20325 46.5818 9.02585 46.9365 8.67104L50.5693 5.03823C51.2791 4.32862 51.2791 3.1792 50.5695 2.46971Z" fill="#F24973"/>
<path d="M46.9367 8.67092L50.5695 5.03811C51.279 4.32862 51.279 3.17907 50.5695 2.46959C49.86 1.7601 48.7104 1.7601 48.001 2.46959L45.6523 4.8182V9.20312C46.1172 9.20312 46.582 9.02572 46.9367 8.67092Z" fill="#D92C49"/>
<path d="M52.918 20.1016H38.3867C37.3827 20.1016 36.5703 19.2891 36.5703 18.2852V7.38672C36.5703 6.38273 37.3827 5.57031 38.3867 5.57031H52.918C53.922 5.57031 54.7344 6.38273 54.7344 7.38672V18.2852C54.7344 19.2891 53.922 20.1016 52.918 20.1016Z" fill="#8AE68A"/>
<path d="M52.918 5.57031H45.6523V20.1016H52.918C53.922 20.1016 54.7344 19.2891 54.7344 18.2852V7.38672C54.7344 6.38273 53.922 5.57031 52.918 5.57031Z" fill="#60BF80"/>
<path d="M10.9056 16.4685L7.93685 5.57053H1.81641C0.812418 5.57053 0 4.75812 0 3.75413C0 2.75014 0.812418 1.93772 1.81641 1.93772H9.32398C10.1435 1.93772 10.8602 2.48579 11.0766 3.27702L15.0357 17.8083L10.9056 16.4685Z" fill="#80334D"/>
<path d="M49.285 49.1641H20.2225C19.2221 49.1641 18.4061 48.3498 18.4061 47.3477C18.4061 46.4093 19.1086 45.6324 20.0381 45.5401C21.035 45.4408 21.7659 44.5503 21.6629 43.5516C21.5672 42.5548 20.6731 41.8611 19.6763 41.925C16.8807 42.2035 14.7734 44.5343 14.7734 47.3475C14.7734 50.3523 17.2178 52.7967 20.2227 52.7967H49.2852C50.2891 52.7967 51.1016 51.9843 51.1016 50.9803C51.1016 49.9764 50.289 49.1641 49.285 49.1641Z" fill="#80334D"/>
<path d="M49.2852 49.1641H38.3867V52.7969H49.2852C50.2891 52.7969 51.1016 51.9845 51.1016 50.9805C51.1016 49.9765 50.2891 49.1641 49.2852 49.1641Z" fill="#59243F"/>
<path d="M20.2223 45.4958C19.4099 45.4958 18.6861 44.9547 18.4697 44.1583L10.9033 16.4688H60.1833C60.7155 16.4688 61.2227 16.7029 61.5704 17.1109C61.9145 17.5189 62.0635 18.0564 61.9749 18.5832L58.342 40.38C58.2073 41.1906 57.5474 41.808 56.7279 41.8896C15.1257 46.0057 20.6585 45.4958 20.2223 45.4958Z" fill="#F24973"/>
<path d="M60.1836 16.4688H38.3867V43.7073C43.1567 43.2335 49.1533 42.639 56.7282 41.8896C57.5477 41.808 58.2076 41.1908 58.3424 40.38L61.9752 18.5832C62.0638 18.0563 61.9149 17.5189 61.5707 17.1109C61.2231 16.7029 60.7157 16.4688 60.1836 16.4688Z" fill="#D92C49"/>
<path d="M49.2852 60.0625C46.2803 60.0625 43.8359 57.6181 43.8359 54.6133C43.8359 51.6085 46.2803 49.1641 49.2852 49.1641C52.29 49.1641 54.7344 51.6085 54.7344 54.6133C54.7344 57.6181 52.29 60.0625 49.2852 60.0625Z" fill="#59243F"/>
<path d="M49.2852 56.4297C50.2883 56.4297 51.1016 55.6165 51.1016 54.6133C51.1016 53.6101 50.2883 52.7969 49.2852 52.7969C48.282 52.7969 47.4688 53.6101 47.4688 54.6133C47.4688 55.6165 48.282 56.4297 49.2852 56.4297Z" fill="#D9E5FF"/>
<path d="M23.8555 60.0625C20.8506 60.0625 18.4062 57.6181 18.4062 54.6133C18.4062 51.6085 20.8506 49.1641 23.8555 49.1641C26.8603 49.1641 29.3047 51.6085 29.3047 54.6133C29.3047 57.6181 26.8603 60.0625 23.8555 60.0625Z" fill="#80334D"/>
<path d="M23.8555 56.4297C24.8586 56.4297 25.6719 55.6165 25.6719 54.6133C25.6719 53.6101 24.8586 52.7969 23.8555 52.7969C22.8523 52.7969 22.0391 53.6101 22.0391 54.6133C22.0391 55.6165 22.8523 56.4297 23.8555 56.4297Z" fill="#ECF2FF"/>
<path d="M49.2852 34.6328C48.2812 34.6328 47.4688 33.8204 47.4688 32.8164V25.5508C47.4688 24.5468 48.2812 23.7344 49.2852 23.7344C50.2891 23.7344 51.1016 24.5468 51.1016 25.5508V32.8164C51.1016 33.8204 50.2891 34.6328 49.2852 34.6328Z" fill="#D9E5FF"/>
<path d="M27.4883 34.6328C26.4843 34.6328 25.6719 33.8204 25.6719 32.8164V25.5508C25.6719 24.5468 26.4843 23.7344 27.4883 23.7344C28.4923 23.7344 29.3047 24.5468 29.3047 25.5508V32.8164C29.3047 33.8204 28.4923 34.6328 27.4883 34.6328Z" fill="#ECF2FF"/>
<path d="M38.3867 34.6328C37.3827 34.6328 36.5703 33.8204 36.5703 32.8164V25.5508C36.5703 24.5468 37.3827 23.7344 38.3867 23.7344C39.3907 23.7344 40.2031 24.5468 40.2031 25.5508V32.8164C40.2031 33.8204 39.3907 34.6328 38.3867 34.6328Z" fill="#ECF2FF"/>
<path d="M40.2031 32.8164V25.5508C40.2031 24.5468 39.3907 23.7344 38.3867 23.7344V34.6328C39.3907 34.6328 40.2031 33.8204 40.2031 32.8164Z" fill="#D9E5FF"/>
</g>
<defs>
<clipPath id="clip0_749_269">
<rect width="62" height="62" fill="white"/>
</clipPath>
</defs>
</svg>
