<svg width="50" height="50" viewBox="0 0 50 50" fill="none" xmlns="http://www.w3.org/2000/svg">
<path d="M10.546 8.55433C7.85066 9.37464 5.42878 11.445 4.06159 14.0621C3.00691 16.0934 3.04597 20.7809 4.17878 22.8903C5.74128 25.859 10.5069 29.0621 12.3038 28.359C13.3585 27.9684 12.8116 27.3043 10.8585 26.5621C8.08503 25.5075 6.79597 24.3746 5.62409 22.07C3.55378 17.8121 5.15534 13.0465 9.33503 10.859C12.1085 9.4137 14.3741 9.4137 17.2257 10.82C19.96 12.2262 21.4444 14.3356 21.7178 17.2262C22.1085 21.3278 18.8663 31.0934 14.8038 37.7731C13.2803 40.3121 12.9288 41.2106 13.2803 41.5621C14.6475 42.8903 20.1944 31.8356 22.4991 23.2418C23.6319 18.945 23.6319 16.3668 22.4991 14.0231C20.4678 9.72621 14.96 7.2262 10.546 8.55433Z" fill="white"/>
<path d="M33.9835 8.55431C31.21 9.45275 28.8663 11.4449 27.4991 14.0621C26.4444 16.0934 26.4835 20.7809 27.6163 22.8903C29.1788 25.859 33.9444 29.0621 35.7413 28.359C36.796 27.9684 36.2491 27.3043 34.296 26.5621C31.5225 25.5074 30.2335 24.3746 29.0616 22.0699C25.3116 14.3356 33.9053 6.67931 41.2882 11.1715C44.0225 12.8512 45.4678 15.7028 45.1553 18.984C44.7647 23.7106 41.4053 32.4996 37.6163 38.7887C36.5616 40.5465 36.3272 41.1715 36.7178 41.5231C37.3819 42.1871 38.6319 40.5074 41.171 35.5465C44.4132 29.2184 46.8741 21.5621 46.8741 17.8903C46.835 14.6481 44.4132 10.9371 41.21 9.2965C39.5303 8.43713 35.585 8.00744 33.9835 8.55431Z" fill="white"/>
</svg>
