<svg width="14" height="14" viewBox="0 0 14 14" fill="none" xmlns="http://www.w3.org/2000/svg">
<g clip-path="url(#clip0_743_954)">
<path d="M4.68388 4.47913L6.59488 0.693C6.63159 0.616834 6.68894 0.552504 6.7604 0.507333C6.83187 0.462163 6.91459 0.437967 6.99913 0.4375C7.15926 0.4375 7.31938 0.522375 7.40601 0.693L9.31701 4.47913L13.6028 5.08813C13.7096 5.10492 13.8074 5.15805 13.8796 5.23854C13.9518 5.31904 13.994 5.42198 13.9991 5.53C14.0052 5.60191 13.995 5.67428 13.9693 5.7417C13.9435 5.80912 13.9029 5.86985 13.8504 5.91937L10.7678 8.85588L11.494 12.9946C11.5623 13.3822 11.179 13.6859 10.8413 13.5126L6.99913 11.5386L3.15876 13.5126C3.11859 13.5335 3.07553 13.5482 3.03101 13.5564C2.73176 13.6089 2.44651 13.3341 2.50601 12.9946L3.23226 8.85588L0.15051 5.91937C0.102599 5.87405 0.0645176 5.81936 0.0386279 5.7587C0.0127383 5.69804 -0.000406522 5.6327 9.57866e-06 5.56675C5.50899e-05 5.47351 0.0257883 5.38208 0.0743846 5.3025C0.108858 5.24481 0.155846 5.1956 0.21188 5.15849C0.267914 5.12139 0.331565 5.09734 0.398135 5.08813L4.68388 4.47913ZM6.99913 10.5236C7.06976 10.5233 7.13942 10.5401 7.20214 10.5726L10.4274 12.2299L9.82014 8.7675C9.8058 8.68787 9.81123 8.60594 9.83594 8.5289C9.86066 8.45185 9.9039 8.38206 9.96188 8.32563L12.5055 5.90188L8.96001 5.39788C8.88659 5.38679 8.81696 5.35807 8.75707 5.31418C8.69718 5.27029 8.64882 5.21254 8.61613 5.14587L7.00001 1.94513L6.99913 1.94775V10.5227V10.5236Z" fill="#FFC014"/>
</g>
<defs>
<clipPath id="clip0_743_954">
<rect width="14" height="14" fill="white"/>
</clipPath>
</defs>
</svg>
