<svg width="60" height="60" viewBox="0 0 60 60" fill="none" xmlns="http://www.w3.org/2000/svg">
<rect width="60" height="60" rx="30" fill="#FC8068"/>
<g clip-path="url(#clip0_743_1240)">
<path d="M44.4727 31.7217L38.6719 39.5552C38.3203 39.8967 37.8955 40.0674 37.3975 40.0674C36.8994 40.0674 36.4746 39.8917 36.123 39.5402C35.7715 39.1887 35.5957 38.7568 35.5957 38.2446C35.5957 37.7324 35.7715 37.2956 36.123 36.934L40.957 30.4261L36.123 23.9182C35.7715 23.5567 35.5957 23.1248 35.5957 22.6227C35.5957 22.1205 35.7715 21.6887 36.123 21.3271C36.4746 20.9656 36.8994 20.7848 37.3975 20.7848C37.8955 20.7848 38.3203 20.9656 38.6719 21.3271L44.4727 29.1306C44.8242 29.4921 45 29.924 45 30.4261C45 30.9283 44.8242 31.3601 44.4727 31.7217ZM30 43.9541C29.9805 44.0143 29.9512 44.1298 29.9121 44.3006C29.873 44.4713 29.8438 44.5868 29.8242 44.6471L29.7217 44.9634L29.5752 45.2798L29.3555 45.5208L29.0479 45.7317L28.6523 45.8372L28.125 45.8824C27.6562 45.8824 27.207 45.6313 26.7773 45.1291C26.3477 44.627 26.1914 44.1449 26.3086 43.6829L30 16.9283C30.332 15.6428 31.2695 15 32.8125 15C33.2422 15 33.5303 15.236 33.6768 15.708C33.8232 16.1801 33.8281 16.6772 33.6914 17.1994L30 43.9541ZM23.877 39.5402C23.5254 39.8917 23.1006 40.0674 22.6025 40.0674C22.1045 40.0674 21.6797 39.8967 21.3281 39.5552L15.5273 31.7217C15.1758 31.3601 15 30.9283 15 30.4261C15 29.924 15.1758 29.4921 15.5273 29.1306L21.3281 21.3271C21.6797 20.9656 22.1045 20.7848 22.6025 20.7848C23.1006 20.7848 23.5254 20.9656 23.877 21.3271C24.2285 21.6887 24.4043 22.1205 24.4043 22.6227C24.4043 23.1248 24.2285 23.5567 23.877 23.9182L19.043 30.4261L23.877 36.934C24.2285 37.2956 24.4043 37.7324 24.4043 38.2446C24.4043 38.7568 24.2285 39.1887 23.877 39.5402Z" fill="white"/>
</g>
<defs>
<clipPath id="clip0_743_1240">
<rect width="30" height="30.8824" fill="white" transform="translate(15 15)"/>
</clipPath>
</defs>
</svg>
