<svg width="60" height="60" viewBox="0 0 60 60" fill="none" xmlns="http://www.w3.org/2000/svg">
<rect width="60" height="60" rx="30" fill="#4FCFFE"/>
<path fill-rule="evenodd" clip-rule="evenodd" d="M34.6303 17.1304C34.7116 17.0489 34.8082 16.9842 34.9145 16.9401C35.0208 16.896 35.1347 16.8733 35.2498 16.8733C35.3649 16.8733 35.4789 16.896 35.5852 16.9401C35.6915 16.9842 35.7881 17.0489 35.8693 17.1304L42.8693 24.1304C42.9508 24.2116 43.0155 24.3082 43.0596 24.4145C43.1037 24.5208 43.1264 24.6348 43.1264 24.7499C43.1264 24.8649 43.1037 24.9789 43.0596 25.0852C43.0155 25.1915 42.9508 25.2881 42.8693 25.3694L39.5408 28.6979L38.0901 34.4956C37.9798 34.9371 37.7566 35.3423 37.4424 35.6715C37.1283 36.0007 36.7339 36.2425 36.2981 36.3734L18.1943 41.8054L23.6263 23.6999C23.7573 23.2646 23.999 22.8707 24.3278 22.5569C24.6567 22.2431 25.0614 22.02 25.5023 21.9096L31.3001 20.4606L34.6303 17.1304ZM31.4803 22.2194L25.9276 23.6071C25.7802 23.6439 25.6449 23.7184 25.5351 23.8234C25.4252 23.9283 25.3446 24.06 25.3011 24.2056L20.8036 39.1944L35.7958 34.6969C35.9405 34.653 36.0714 34.5724 36.1757 34.4629C36.28 34.3534 36.3541 34.2188 36.3908 34.0721L37.7803 28.5176L31.4803 22.2176V22.2194Z" fill="white"/>
<path fill-rule="evenodd" clip-rule="evenodd" d="M20.9562 39.149L30.0002 31.75C30.3463 31.75 30.6846 31.6474 30.9724 31.4551C31.2602 31.2628 31.4845 30.9895 31.617 30.6697C31.7494 30.3499 31.7841 29.9981 31.7165 29.6586C31.649 29.3191 31.4823 29.0073 31.2376 28.7626C30.9929 28.5178 30.681 28.3512 30.3416 28.2836C30.0021 28.2161 29.6502 28.2508 29.3305 28.3832C29.0107 28.5157 28.7374 28.74 28.5451 29.0278C28.3528 29.3155 28.2502 29.6539 28.2502 30L20.8512 39.044L20.8057 39.1945L20.9562 39.149Z" fill="white"/>
</svg>
