<svg width="60" height="60" viewBox="0 0 60 60" fill="none" xmlns="http://www.w3.org/2000/svg">
<rect width="60" height="60" rx="30" fill="#FFD25D"/>
<path d="M41 16H19C17.344 16 16 17.344 16 19V41C16 42.656 17.344 44 19 44H41C42.656 44 44 42.656 44 41V19C44 17.344 42.656 16 41 16ZM23.938 38.031C23.7722 38.3177 23.4994 38.5268 23.1794 38.6123C22.8595 38.6978 22.5187 38.6528 22.232 38.487C21.9453 38.3212 21.7362 38.0484 21.6507 37.7284C21.5652 37.4085 21.6102 37.0677 21.776 36.781L22.67 35.237C23.676 34.931 24.501 35.168 25.145 35.949L23.938 38.031ZM32.619 34.663H21.25C20.562 34.663 20 34.1 20 33.413C20 32.726 20.563 32.163 21.25 32.163H24.438L28.525 25.088L27.244 22.876C27.0791 22.5891 27.0346 22.2486 27.12 21.9289C27.2054 21.6092 27.414 21.3364 27.7 21.17C27.9869 21.0051 28.3274 20.9606 28.6471 21.046C28.9668 21.1314 29.2396 21.34 29.406 21.626L29.962 22.588L30.518 21.626C30.6001 21.484 30.7093 21.3596 30.8395 21.2599C30.9696 21.1602 31.1181 21.087 31.2766 21.0447C31.435 21.0023 31.6002 20.9916 31.7627 21.0131C31.9253 21.0346 32.082 21.0879 32.224 21.17C32.366 21.2521 32.4904 21.3613 32.5901 21.4915C32.6898 21.6216 32.763 21.7701 32.8053 21.9286C32.8477 22.087 32.8584 22.2522 32.8369 22.4147C32.8154 22.5773 32.7621 22.734 32.68 22.876L27.318 32.164H31.199C32.461 32.164 33.168 33.645 32.618 34.664L32.619 34.663ZM38.75 34.663H36.937L38.162 36.782C38.506 37.382 38.299 38.145 37.706 38.488C37.106 38.832 36.343 38.625 36 38.032C33.944 34.476 32.406 31.801 31.375 30.026C30.331 28.213 31.075 26.401 31.819 25.789C32.638 27.208 33.863 29.333 35.5 32.164H38.75C39.0815 32.164 39.3995 32.2957 39.6339 32.5301C39.8683 32.7645 40 33.0825 40 33.414C40 33.7455 39.8683 34.0635 39.6339 34.2979C39.3995 34.5323 39.0815 34.664 38.75 34.664V34.663Z" fill="#060667"/>
</svg>
