<svg width="60" height="60" viewBox="0 0 60 60" fill="none" xmlns="http://www.w3.org/2000/svg">
<rect width="60" height="60" rx="30" fill="#45C881"/>
<path d="M24.6667 16.6667C23.3333 16.6667 21.3333 17.3334 21.3333 20.0001V26.0001C21.3333 28.0001 18 29.3334 18 29.3334C18 29.3334 21.3333 30.6667 21.3333 32.6667V40.0001C21.3333 42.6667 23.3333 43.3334 24.6667 43.3334" stroke="white" stroke-width="2.66667" stroke-linecap="round" stroke-linejoin="round"/>
<path d="M35.333 16.6667C36.6663 16.6667 38.6663 17.3334 38.6663 20.0001V26.0001C38.6663 28.0001 41.9997 29.3334 41.9997 29.3334C41.9997 29.3334 38.6663 30.6667 38.6663 32.6667V40.0001C38.6663 42.6667 36.6663 43.3334 35.333 43.3334" stroke="white" stroke-width="2.66667" stroke-linecap="round" stroke-linejoin="round"/>
</svg>
